<?xml version="1.0" encoding="utf-8"?>
<!-- Uploaded to: SVG Repo, www.svgrepo.com, Generator: SVG Repo Mixer Tools -->
<svg fill="#000000" width="800px" height="800px" viewBox="0 0 32 32" version="1.1" xmlns="http://www.w3.org/2000/svg">
<title>hand-holding</title>
<path d="M29.287 11.473c-0.487-0.21-1.054-0.332-1.649-0.332-0.65 0-1.265 0.145-1.817 0.405l0.026-0.011-5.121 2.301c-0.32-1.36-1.524-2.357-2.96-2.357-0.057 0-0.114 0.002-0.171 0.005l0.008-0h-3.711l-4.691-1.373c-0.104-0.032-0.225-0.051-0.349-0.051-0.001 0-0.002 0-0.003 0h-1.669v-0.258c0-0.69-0.56-1.25-1.25-1.25v0h-3.883c-0.69 0-1.25 0.56-1.25 1.25v0 12.208c0 0.69 0.56 1.25 1.25 1.25h3.883c0.69-0 1.25-0.56 1.25-1.25v-0.44c1.596 0.316 2.993 0.738 4.33 1.278l-0.159-0.057c1.209 0.433 2.603 0.684 4.056 0.684 1.676 0 3.273-0.333 4.731-0.936l-0.082 0.030c1.271-0.563 2.351-1.16 3.372-1.839l-0.083 0.052c0.334-0.207 0.668-0.412 1.004-0.611 1.654-0.98 2.979-1.836 4.168-2.697 0.597-0.426 1.119-0.847 1.614-1.296l-0.014 0.013c0.426-0.351 0.765-0.791 0.991-1.294l0.009-0.022c0.053-0.134 0.084-0.289 0.084-0.451 0-0.093-0.010-0.183-0.029-0.27l0.002 0.008c-0.176-1.169-0.885-2.143-1.868-2.678l-0.019-0.010zM4.681 20.76h-1.383v-9.708h1.383zM28.381 14.391c-0.399 0.357-0.832 0.704-1.284 1.027l-0.046 0.031c-1.125 0.813-2.387 1.63-3.975 2.569-0.352 0.209-0.697 0.424-1.045 0.639-0.833 0.558-1.793 1.092-2.795 1.547l-0.128 0.052c-1.096 0.452-2.368 0.715-3.701 0.715-1.137 0-2.229-0.191-3.247-0.542l0.070 0.021c-1.451-0.606-3.148-1.096-4.911-1.391l-0.138-0.019v-6.48h1.489l4.691 1.373c0.104 0.032 0.225 0.051 0.349 0.051 0.001 0 0.002 0 0.003 0h3.89c0.443 0 0.697 0.171 0.697 0.47s-0.254 0.47-0.697 0.47h-6.809c-0.69 0-1.25 0.56-1.25 1.25s0.56 1.25 1.25 1.25v0h7.781c0 0 0 0 0.001 0 0.185 0 0.361-0.040 0.519-0.113l-0.008 0.003 7.801-3.506c0.228-0.105 0.494-0.166 0.775-0.166 0.183 0 0.36 0.026 0.527 0.074l-0.013-0.003c0.185 0.113 0.326 0.283 0.4 0.485l0.002 0.007z"></path>
</svg>